<svg width="18" height="18" viewBox="0 0 18 18" fill="none" xmlns="http://www.w3.org/2000/svg">
<path d="M11.9 0H6.1C5.57 0 5.06 0.21 4.68 0.59L0.58 4.69C0.21 5.06 0 5.57 0 6.1V11.9C0 12.43 0.21 12.94 0.59 13.31L4.69 17.41C5.06 17.79 5.57 18 6.1 18H11.9C12.43 18 12.94 17.79 13.31 17.41L17.41 13.31C17.79 12.94 18 12.43 18 11.9V6.1C18 5.57 17.79 5.06 17.41 4.69L13.31 0.59C12.94 0.21 12.43 0 11.9 0ZM12.54 12.54C12.4475 12.6327 12.3376 12.7063 12.2166 12.7564C12.0957 12.8066 11.966 12.8324 11.835 12.8324C11.704 12.8324 11.5743 12.8066 11.4534 12.7564C11.3324 12.7063 11.2225 12.6327 11.13 12.54L9 10.41L6.88 12.53C6.78742 12.6226 6.67751 12.696 6.55654 12.7461C6.43558 12.7962 6.30593 12.822 6.175 12.822C6.04407 12.822 5.91442 12.7962 5.79346 12.7461C5.67249 12.696 5.56258 12.6226 5.47 12.53C5.37742 12.4374 5.30398 12.3275 5.25387 12.2065C5.20377 12.0856 5.17798 11.9559 5.17798 11.825C5.17798 11.6941 5.20377 11.5644 5.25387 11.4435C5.30398 11.3225 5.37742 11.2126 5.47 11.12L7.59 9L5.46 6.88C5.36742 6.78742 5.29398 6.67751 5.24387 6.55654C5.19377 6.43558 5.16798 6.30593 5.16798 6.175C5.16798 6.04407 5.19377 5.91442 5.24387 5.79346C5.29398 5.67249 5.36742 5.56258 5.46 5.47C5.55258 5.37742 5.66249 5.30398 5.78346 5.25387C5.90442 5.20377 6.03407 5.17798 6.165 5.17798C6.29593 5.17798 6.42558 5.20377 6.54654 5.25387C6.66751 5.30398 6.77742 5.37742 6.87 5.47L9 7.59L11.12 5.47C11.2126 5.37742 11.3225 5.30398 11.4435 5.25387C11.5644 5.20377 11.6941 5.17798 11.825 5.17798C11.9559 5.17798 12.0856 5.20377 12.2065 5.25387C12.3275 5.30398 12.4374 5.37742 12.53 5.47C12.6226 5.56258 12.696 5.67249 12.7461 5.79346C12.7962 5.91442 12.822 6.04407 12.822 6.175C12.822 6.30593 12.7962 6.43558 12.7461 6.55654C12.696 6.67751 12.6226 6.78742 12.53 6.88L10.41 9L12.53 11.12C12.93 11.51 12.93 12.15 12.54 12.54Z" fill="#C14F46"/>
</svg>
