<svg width="12" height="10" viewBox="0 0 12 10" fill="none" xmlns="http://www.w3.org/2000/svg">
<path d="M1.33368 0.833252H4.35223C4.44345 0.833268 4.5267 0.850231 4.60614 0.883057C4.64658 0.899767 4.68385 0.919537 4.71844 0.942627L4.81415 1.02173L5.79266 2.00024H10.6667C10.8537 2.00024 11.0017 2.0608 11.1374 2.19653C11.2731 2.33224 11.3339 2.48001 11.3337 2.66626V8.50024C11.3336 8.68735 11.2727 8.83539 11.1374 8.97095C11.0361 9.07243 10.9275 9.13225 10.8005 9.15552L10.6677 9.16626H1.33368C1.1464 9.16626 0.998134 9.10609 0.862976 8.97095C0.761523 8.86949 0.702004 8.76048 0.678406 8.63306L0.666687 8.49927V1.50024C0.666687 1.31331 0.727643 1.1657 0.862976 1.03052C0.965006 0.928661 1.07385 0.868526 1.20087 0.844971L1.33368 0.833252Z" stroke="#363F72"/>
</svg>
